<svg class="hanger-ico" version="1.0" xmlns="http://www.w3.org/2000/svg"
 width="300.000000pt" height="300.000000pt" viewBox="0 0 300.000000 300.000000"
 preserveAspectRatio="xMidYMid meet">

<g transform="translate(0.000000,300.000000) scale(0.100000,-0.100000)"
fill="#000000" stroke="none">
<path d="M1393 2274 c-52 -40 -75 -80 -80 -140 -6 -63 6 -84 47 -84 34 0 45
14 55 65 9 55 39 85 85 85 58 0 90 -31 90 -87 0 -42 -5 -50 -64 -112 -75 -77
-86 -101 -86 -182 l0 -59 -47 -21 c-27 -12 -57 -24 -68 -29 -11 -4 -45 -18
-75 -30 -30 -12 -66 -27 -80 -32 -14 -6 -33 -14 -42 -19 -10 -5 -26 -9 -36 -9
-10 0 -22 -4 -27 -9 -6 -5 -35 -18 -65 -29 -30 -11 -86 -32 -125 -46 -38 -15
-101 -38 -140 -52 -38 -14 -90 -35 -115 -46 -25 -11 -56 -24 -70 -29 -44 -13
-123 -45 -182 -73 -31 -14 -60 -26 -63 -26 -3 0 -26 -19 -51 -42 -42 -39 -44
-44 -44 -98 0 -59 8 -76 50 -104 22 -15 128 -16 1242 -16 l1217 0 36 31 c32
28 35 36 35 85 0 79 -44 125 -170 177 -45 19 -66 27 -215 87 -149 59 -140 55
-340 129 -127 47 -273 103 -305 117 -120 54 -170 52 -170 -5 0 -16 6 -33 13
-39 11 -9 142 -62 312 -126 39 -15 86 -33 105 -41 19 -7 82 -31 140 -53 420
-161 474 -184 508 -215 53 -49 105 -47 -1168 -47 -982 0 -1190 2 -1190 13 0
25 46 56 150 102 144 63 251 106 520 205 58 21 137 51 175 65 39 15 81 30 95
35 14 4 59 22 100 40 41 17 87 35 101 40 85 26 99 46 99 143 l0 82 63 66 c84
89 109 176 71 252 -39 77 -93 107 -191 107 -58 0 -73 -4 -100 -26z"/>
</g>
</svg>
