<svg class="home-ico" version="1.0" xmlns="http://www.w3.org/2000/svg"
 width="512.000000pt" height="512.000000pt" viewBox="0 0 512.000000 512.000000"
 preserveAspectRatio="xMidYMid meet">

<g transform="translate(0.000000,512.000000) scale(0.100000,-0.100000)"
fill="#000000" stroke="none">
<path d="M2495 3848 c-11 -6 -369 -264 -796 -574 -503 -366 -780 -572 -787
-589 -32 -70 3 -134 78 -142 43 -5 49 -2 155 75 l110 80 5 -720 5 -720 33 -29
32 -29 451 0 451 0 29 29 29 29 0 501 0 501 245 0 245 0 0 -499 0 -499 29 -31
29 -31 451 0 c481 0 484 0 508 48 4 9 10 340 13 735 l5 718 105 -77 c128 -94
170 -105 220 -56 38 39 42 98 8 136 -25 28 -1523 1118 -1569 1141 -33 18 -57
18 -84 3z m588 -616 l527 -383 -2 -722 -3 -722 -312 -3 -313 -2 0 501 0 501
-29 29 -29 29 -382 0 c-242 0 -388 -4 -401 -10 -48 -26 -49 -36 -49 -560 l0
-490 -310 0 -310 0 0 728 0 727 532 387 c293 212 537 384 543 380 5 -3 247
-179 538 -390z"/>
</g>
</svg>
