<svg class="pantrobas-ico" version="1.0" xmlns="http://www.w3.org/2000/svg"
 width="250.000000pt" height="250.000000pt" viewBox="0 0 250.000000 250.000000"
 preserveAspectRatio="xMidYMid meet">

<g transform="translate(0.000000,250.000000) scale(0.100000,-0.100000)"
fill="#000000" stroke="none">
<path d="M1432 2375 c-285 -45 -516 -130 -768 -283 -114 -68 -293 -205 -392
-299 -73 -69 -82 -82 -82 -114 0 -46 33 -79 81 -79 29 0 50 14 134 90 122 110
193 163 179 134 -5 -10 -9 -89 -9 -174 l0 -155 -105 -12 c-58 -6 -108 -12
-113 -12 -4 -1 -16 -10 -27 -21 -29 -29 -27 -84 5 -116 25 -25 28 -26 113 -18
151 13 137 21 140 -68 l3 -77 -108 -55 c-180 -92 -292 -201 -344 -333 -31 -81
-32 -231 0 -318 66 -184 221 -290 458 -315 365 -39 1026 181 1528 508 122 79
253 179 266 203 26 49 -1 111 -56 125 -29 7 -43 -1 -176 -102 -343 -260 -898
-499 -1295 -559 -374 -56 -584 55 -584 309 0 78 31 144 96 209 50 50 201 150
214 142 4 -3 10 -114 14 -247 6 -211 10 -246 25 -268 26 -36 66 -48 99 -29 49
27 51 42 41 329 -5 145 -7 270 -5 276 12 32 417 105 696 125 189 14 588 5 715
-16 50 -8 104 -14 121 -15 66 0 101 92 51 138 -30 29 -159 49 -403 63 -313 19
-748 -14 -1024 -78 -169 -39 -165 -39 -165 27 l0 54 183 23 c289 36 512 97
738 203 185 87 334 201 403 309 40 62 63 153 55 216 -25 201 -184 296 -489
294 -71 -1 -167 -7 -213 -14z m428 -178 c76 -26 110 -66 110 -129 0 -60 -24
-105 -93 -172 -133 -129 -409 -257 -688 -320 -126 -28 -425 -69 -440 -60 -5 3
-9 66 -9 140 0 178 -9 196 -100 206 -21 3 -12 11 60 58 310 200 618 298 945
299 129 0 159 -3 215 -22z"/>
</g>
</svg>
