<svg class="ventela-ico" version="1.0" xmlns="http://www.w3.org/2000/svg"
 width="250.000000pt" height="250.000000pt" viewBox="0 0 250.000000 250.000000"
 preserveAspectRatio="xMidYMid meet">

<g transform="translate(0.000000,250.000000) scale(0.100000,-0.100000)"
fill="#000000" stroke="none">
<path d="M655 2281 c-33 -9 -76 -24 -95 -32 -80 -36 -124 -131 -117 -251 18
-302 142 -619 333 -852 52 -63 190 -180 263 -224 88 -52 240 -90 264 -66 3 3
-1 20 -8 38 -8 17 -40 96 -71 176 -75 195 -164 420 -174 445 -5 11 -19 45 -30
75 -12 30 -28 70 -36 88 -8 18 -14 35 -14 37 0 3 61 5 135 5 97 0 135 -3 135
-12 0 -9 105 -305 155 -438 7 -19 16 -43 19 -52 10 -34 22 -18 53 75 18 50 42
117 53 147 11 30 30 80 40 112 11 31 29 81 41 112 l20 56 125 0 c136 0 140 -2
110 -58 -12 -23 -72 -177 -161 -417 -13 -33 -34 -90 -48 -127 -33 -87 -18 -88
48 -5 146 182 303 472 345 637 13 47 12 142 0 175 -20 52 -100 115 -224 175
-294 142 -511 191 -871 195 -191 3 -240 0 -290 -14z"/>
<path d="M1890 545 l0 -245 45 0 45 0 0 245 0 245 -45 0 -45 0 0 -245z"/>
<path d="M1305 759 c-20 -12 -32 -29 -35 -51 -4 -25 -11 -34 -27 -36 -19 -3
-23 -10 -23 -38 0 -27 4 -34 19 -34 31 0 36 -18 36 -130 0 -117 10 -143 59
-160 16 -5 44 -10 62 -10 34 0 34 1 34 45 0 43 -1 45 -30 45 -37 0 -42 16 -38
125 3 79 3 80 31 83 23 3 27 8 27 37 0 29 -4 34 -27 37 -26 3 -28 7 -31 56 -3
57 -10 61 -57 31z"/>
<path d="M564 678 c-62 -13 -120 -68 -139 -130 -20 -70 -19 -86 11 -146 35
-70 95 -107 174 -106 30 0 69 8 87 17 30 16 93 83 93 99 0 17 -92 8 -117 -12
-35 -27 -102 -27 -137 1 -15 12 -26 29 -24 38 3 14 24 17 148 21 l145 5 -2 39
c-3 50 -44 119 -86 145 -45 28 -104 39 -153 29z m108 -105 c37 -33 23 -41 -64
-37 -93 4 -106 17 -48 47 39 20 83 16 112 -10z"/>
<path d="M1596 675 c-54 -14 -110 -62 -132 -114 -36 -86 5 -205 86 -246 60
-30 161 -24 205 13 26 22 65 72 65 83 0 5 -20 9 -45 9 -32 0 -52 -6 -67 -20
-35 -32 -125 -24 -150 14 -4 6 -8 19 -8 29 0 15 14 17 145 17 144 0 145 0 145
23 0 51 -23 103 -64 142 -53 51 -112 67 -180 50z m112 -101 c40 -27 21 -39
-66 -42 -65 -2 -82 0 -82 11 0 15 26 41 50 50 22 9 70 -1 98 -19z"/>
<path d="M983 665 c-19 -8 -35 -10 -38 -4 -4 5 -26 9 -51 9 l-44 0 2 -182 3
-183 41 -3 42 -3 3 125 c4 109 7 128 24 145 34 33 68 36 101 8 29 -25 29 -27
33 -152 l3 -126 42 3 41 3 0 135 c0 117 -3 140 -20 169 -37 63 -113 86 -182
56z"/>
<path d="M2161 673 c-13 -2 -45 -26 -72 -53 -38 -38 -49 -57 -54 -93 -14 -91
24 -170 97 -206 48 -23 126 -28 160 -10 15 8 26 8 43 -1 12 -6 35 -10 51 -8
l29 3 5 183 5 183 -65 -1 c-36 -1 -90 1 -120 4 -30 2 -66 2 -79 -1z m102 -94
c35 -18 57 -51 57 -87 0 -44 -14 -68 -50 -87 -46 -24 -78 -19 -116 19 -52 52
-44 108 19 146 37 23 59 25 90 9z"/>
<path d="M70 661 c0 -10 23 -74 96 -271 13 -36 24 -71 24 -78 0 -9 12 -12 36
-10 l36 3 69 180 c38 99 69 181 69 182 0 2 -18 3 -41 3 -45 0 -45 0 -90 -138
-15 -46 -29 -71 -37 -70 -8 2 -28 48 -46 103 l-32 100 -42 3 c-24 2 -42 -1
-42 -7z"/>
</g>
</svg>
