<svg class="warrior-ico" version="1.0" xmlns="http://www.w3.org/2000/svg"
 width="250.000000pt" height="250.000000pt" viewBox="0 0 250.000000 250.000000"
 preserveAspectRatio="xMidYMid meet">

<g transform="translate(0.000000,250.000000) scale(0.100000,-0.100000)"
fill="#000000" stroke="none">
<path d="M1128 2300 c-85 -10 -163 -28 -155 -37 3 -3 39 1 79 8 93 17 364 17
443 0 296 -63 550 -233 711 -478 32 -48 59 -90 61 -92 2 -2 6 -2 9 1 7 8 -50
101 -107 173 -170 214 -395 355 -658 411 -86 18 -285 25 -383 14z"/>
<path d="M690 2207 c0 -9 9 -12 28 -9 33 4 94 -10 99 -23 1 -6 -8 -23 -21 -40
l-24 -30 -23 20 -23 20 23 -32 c29 -42 38 -47 49 -26 9 15 14 16 34 5 13 -7
29 -25 36 -41 10 -23 9 -33 -7 -68 -11 -22 -25 -70 -32 -107 -16 -83 -5 -131
49 -226 28 -48 38 -80 42 -125 4 -44 9 -60 20 -60 8 0 17 10 20 23 4 17 37 41
130 93 69 38 122 69 118 69 -4 0 -53 -22 -109 -50 -56 -27 -110 -50 -120 -50
-21 0 -45 32 -88 117 -49 98 -56 144 -32 222 29 93 54 131 88 131 17 0 68 -28
137 -74 61 -41 122 -77 136 -81 14 -4 50 -23 81 -42 l56 -34 7 -115 7 -115
-32 -37 c-18 -20 -52 -49 -76 -65 -23 -16 -76 -60 -117 -98 -58 -54 -84 -88
-119 -157 -40 -78 -87 -206 -87 -236 0 -6 15 25 33 69 56 136 109 227 171 292
32 35 61 63 65 63 9 0 31 -114 31 -155 0 -49 -104 -219 -188 -307 -54 -56 -19
-46 38 11 53 53 127 160 136 198 9 33 24 28 24 -7 0 -30 27 -107 34 -99 2 2 1
34 -3 71 -4 42 -3 72 3 78 5 5 41 10 78 10 63 0 69 -2 80 -25 13 -29 26 -32
34 -7 3 9 10 25 15 34 8 15 6 16 -15 8 -15 -5 -39 -5 -63 2 -54 14 -57 18 -37
39 16 18 16 19 1 13 -9 -3 -17 -10 -17 -14 0 -17 -52 -21 -75 -6 -18 12 -26
31 -35 85 -21 127 4 148 105 90 38 -23 96 -46 129 -53 l61 -12 -2 -43 c-1 -24
-10 -55 -19 -69 l-17 -27 22 20 c29 25 51 67 51 95 0 29 106 157 186 225 51
43 72 55 99 55 58 0 111 27 130 66 21 44 13 55 -69 96 -34 17 -64 35 -67 40
-4 5 -19 2 -37 -9 l-30 -19 43 -10 c24 -5 42 -6 39 -2 -9 14 8 9 53 -17 48
-29 57 -61 27 -104 -15 -21 -22 -23 -73 -18 -40 3 -63 1 -76 -9 -10 -8 -27
-14 -37 -14 -10 0 -18 -4 -18 -9 0 -15 -145 -185 -173 -204 -42 -28 -110 -22
-179 15 -33 18 -62 38 -65 45 -3 8 15 44 40 81 63 92 84 152 54 152 -8 0 -19
11 -25 25 -13 28 -16 55 -6 55 11 0 49 -23 56 -34 5 -6 8 -7 8 -1 0 19 -15 32
-113 98 -64 44 -107 67 -126 67 -19 0 -66 25 -138 71 -79 53 -119 73 -151 77
-23 2 -45 9 -48 14 -10 16 6 57 26 68 26 14 51 6 91 -27 16 -14 78 -43 137
-64 58 -22 122 -52 142 -68 20 -16 73 -40 121 -54 53 -17 94 -36 108 -51 22
-24 28 -25 100 -19 l76 6 37 -37 c20 -20 41 -36 48 -36 6 0 -2 12 -19 26 -38
32 -41 71 -8 134 23 47 45 58 94 45 43 -11 63 -101 30 -142 -6 -9 -6 -13 1
-13 28 0 42 82 22 134 -10 28 -57 56 -93 56 -36 0 -65 -28 -86 -85 -19 -49
-20 -50 -58 -49 -21 1 -59 5 -85 9 l-48 8 0 90 c0 70 4 95 17 109 24 26 12 30
-37 13 -44 -15 -44 -15 -159 31 -144 57 -195 64 -276 34 -62 -22 -212 -47
-222 -36 -4 3 -1 17 5 31 6 14 10 25 8 25 -2 0 -40 7 -83 15 -43 8 -79 15 -80
15 -2 0 -3 -6 -3 -13z m660 -97 c69 -23 131 -49 138 -58 7 -9 12 -43 12 -79
l0 -62 -32 5 c-93 16 -152 37 -195 68 -29 21 -88 46 -150 66 -140 43 -155 66
-65 95 70 22 150 13 292 -35z m235 -240 c18 -8 17 -9 -7 -9 -16 -1 -28 4 -28
9 0 12 8 12 35 0z m280 -98 c-3 -3 -11 0 -18 7 -9 10 -8 11 6 5 10 -3 15 -9
12 -12z m-457 -116 c2 -9 1 -25 -3 -34 -5 -14 -7 -14 -15 -2 -14 22 -12 62 3
58 6 -3 14 -12 15 -22z"/>
<path d="M594 2092 c-173 -137 -310 -358 -375 -608 -21 -79 -24 -112 -24 -284
0 -200 8 -290 27 -290 6 0 8 10 4 24 -16 65 -24 265 -15 369 27 308 175 599
399 779 24 20 42 39 39 43 -4 3 -28 -12 -55 -33z"/>
<path d="M1676 1683 c-8 -16 -45 -57 -81 -93 -71 -69 -105 -126 -104 -175 1
-25 4 -22 17 22 12 38 36 73 84 127 63 69 118 146 104 146 -3 0 -12 -12 -20
-27z"/>
<path d="M2242 1508 c-16 -20 -96 -58 -121 -58 -17 0 -20 -10 -25 -97 -4 -54
-12 -123 -18 -153 l-12 -55 -6 81 c-6 90 -15 108 -65 124 -66 22 -118 -27
-159 -148 -36 -105 -40 -142 -20 -192 l17 -43 -27 -24 c-32 -27 -39 -28 -56
-8 -11 13 -10 37 4 128 10 62 20 122 23 135 4 17 1 22 -15 22 -30 0 -39 -18
-51 -105 -6 -44 -16 -97 -22 -120 -14 -52 -57 -135 -69 -135 -15 0 -12 35 10
130 11 47 20 99 20 117 l0 32 -42 -24 c-24 -13 -60 -27 -80 -30 -41 -8 -39 -2
-52 -145 -12 -119 -54 -225 -83 -207 -9 6 -6 47 16 196 6 41 9 76 7 79 -3 2
-19 -6 -37 -19 -18 -13 -53 -28 -78 -35 l-46 -11 -6 -114 c-7 -113 -22 -193
-38 -203 -13 -8 -20 35 -27 157 l-7 107 -29 0 c-63 0 -126 -56 -162 -144 l-23
-57 -32 50 c-17 28 -46 60 -63 71 -32 19 -91 26 -122 14 -20 -8 -21 -53 -1
-82 26 -36 102 -75 134 -69 38 8 41 -2 41 -113 0 -81 -2 -91 -26 -119 -16 -19
-35 -31 -50 -31 -22 0 -24 4 -24 48 -1 120 -47 244 -109 289 -44 33 -77 30
-90 -8 -28 -79 -3 -181 61 -254 22 -25 38 -49 34 -52 -4 -4 -23 -6 -42 -6
-102 3 -162 176 -120 343 25 97 36 110 98 110 60 0 115 29 124 67 9 34 -7 46
-71 51 -52 4 -59 2 -88 -26 l-32 -31 -55 14 c-159 42 -260 -9 -260 -132 0 -85
36 -118 124 -116 l53 1 6 -97 c8 -156 54 -236 149 -262 51 -13 113 -5 155 21
27 16 38 17 63 8 41 -14 116 -5 141 18 10 9 23 31 27 48 6 23 15 32 38 37 17
3 44 14 61 24 22 13 35 15 48 7 30 -16 62 6 84 58 26 60 51 163 51 212 0 29
20 68 34 68 2 0 1 -40 -2 -89 -4 -81 -3 -90 17 -110 27 -27 37 -27 70 7 48 48
79 114 98 210 18 86 34 124 49 110 3 -3 1 -23 -5 -45 -14 -48 -14 -104 -1
-137 7 -20 17 -26 38 -26 30 0 51 18 93 82 25 39 49 50 49 23 0 -10 10 -15 29
-15 22 0 39 11 70 46 23 26 41 51 41 55 0 5 19 9 43 9 102 0 191 118 219 290
11 68 18 86 32 88 16 3 18 0 12 -22 -17 -67 -18 -113 -3 -149 27 -63 79 -41
127 53 21 42 22 71 0 31 -14 -27 -50 -28 -50 -1 0 10 7 64 16 119 8 55 14 110
12 122 -3 20 -4 21 -16 7z m-280 -245 c52 -47 -16 -263 -84 -263 -58 0 -46
186 17 254 28 30 42 32 67 9z m-1225 -298 c8 -22 -25 -44 -64 -45 -39 0 -44
21 -11 44 29 20 67 20 75 1z m-234 -61 c18 -9 33 -18 35 -19 6 -5 -48 -85 -57
-85 -5 0 -11 9 -14 20 -10 39 -97 14 -97 -28 0 -15 24 -13 63 3 16 7 18 4 15
-21 -3 -26 -7 -29 -47 -32 -47 -4 -75 13 -85 52 -22 90 93 158 187 110z m607
-103 c0 -20 -35 -51 -57 -51 -20 0 -16 21 9 47 26 28 48 30 48 4z m-263 -27
c43 -33 59 -62 38 -70 -39 -16 -125 43 -125 86 0 19 4 21 28 15 15 -3 42 -18
59 -31z m273 -103 c0 -71 -3 -83 -26 -110 -48 -57 -104 -33 -104 45 0 59 22
99 68 123 60 32 62 30 62 -58z m-420 -19 c45 -46 82 -202 47 -202 -45 0 -124
162 -104 215 9 22 25 19 57 -13z"/>
<path d="M305 1265 l0 -85 125 0 125 0 0 85 0 85 -125 0 -125 0 0 -85z m210 0
l0 -60 -95 0 -95 0 -3 49 c-5 77 -5 77 100 74 l93 -3 0 -60z"/>
<path d="M352 1268 c3 -32 4 -33 53 -33 49 0 50 1 53 33 l3 32 -56 0 -56 0 3
-32z m73 2 c-3 -5 -15 -10 -25 -10 -10 0 -22 5 -25 10 -4 6 7 10 25 10 18 0
29 -4 25 -10z"/>
<path d="M675 1340 c-3 -5 -22 -10 -41 -10 -24 0 -34 -4 -31 -12 2 -7 13 -12
25 -10 11 2 23 -1 26 -6 9 -15 -25 -102 -40 -102 -8 0 -14 -4 -14 -10 0 -5 16
-10 34 -10 34 0 35 2 52 60 l17 60 58 0 59 0 0 -50 c0 -49 -1 -50 -30 -50 -16
0 -30 -4 -30 -10 0 -5 25 -10 55 -10 l55 0 0 75 0 75 -75 0 c-43 0 -75 4 -75
10 0 6 -9 10 -19 10 -11 0 -23 -4 -26 -10z"/>
<path d="M1719 1299 c-15 -30 1 -44 38 -32 17 6 29 18 31 31 3 19 -1 22 -27
22 -21 0 -34 -7 -42 -21z"/>
<path d="M2316 1188 c-3 -13 -6 -42 -6 -65 0 -23 -4 -44 -8 -47 -5 -3 -27 0
-50 6 -54 13 -88 4 -124 -34 -43 -46 -34 -52 19 -12 49 37 73 39 121 8 28 -18
29 -57 2 -142 -24 -76 -25 -91 -6 -72 23 24 57 177 63 283 6 94 2 121 -11 75z"/>
<path d="M1091 1050 c-23 -33 -40 -60 -38 -60 8 0 89 111 85 116 -2 2 -23 -23
-47 -56z"/>
<path d="M2049 894 c-23 -25 -23 -26 -2 -15 23 12 38 29 31 37 -3 2 -15 -8
-29 -22z"/>
<path d="M1953 863 c-60 -4 -63 -5 -101 -51 -22 -26 -51 -64 -65 -84 -24 -36
-24 -39 -12 -99 13 -60 11 -89 -5 -89 -10 0 -73 71 -128 143 -24 31 -50 57
-58 57 -19 0 -18 -2 12 -36 45 -51 134 -173 134 -184 0 -6 -7 -25 -16 -41 -22
-44 -9 -48 17 -5 18 30 26 36 56 36 28 0 33 3 29 18 -3 9 -12 47 -21 84 -15
65 -14 70 4 106 28 55 94 112 130 112 44 0 46 -15 11 -60 -36 -45 -33 -50 10
-19 22 17 37 20 64 16 41 -6 49 7 11 17 -19 5 -25 13 -25 34 0 15 5 33 12 40
7 7 10 11 8 10 -3 -1 -33 -3 -67 -5z"/>
<path d="M1460 661 c0 -5 21 -27 47 -48 26 -21 65 -54 87 -75 l41 -36 -23 -54
c-39 -88 -38 -85 -20 -70 23 19 60 110 53 132 -12 37 -185 179 -185 151z"/>
<path d="M1190 497 c0 -11 73 -107 82 -107 5 0 4 8 -1 18 -13 24 -80 99 -81
89z"/>
<path d="M1414 466 c-39 -17 -64 -52 -64 -87 0 -24 -5 -27 -45 -33 -29 -5 -49
-14 -55 -27 -13 -23 -4 -25 16 -4 9 8 33 15 55 15 33 0 39 3 44 25 3 14 7 36
10 50 4 16 19 32 45 45 58 30 54 42 -6 16z"/>
<path d="M1129 415 c34 -40 40 -78 15 -113 -21 -30 -53 -46 -91 -44 -39 3 -47
-8 -27 -36 13 -19 24 -22 95 -22 43 0 79 4 79 9 0 5 -30 8 -66 8 -46 -2 -68 2
-71 11 -3 7 4 12 17 12 35 0 100 71 100 108 0 31 -50 102 -72 102 -6 0 4 -16
21 -35z"/>
</g>
</svg>
